<svg width="27" height="27" viewBox="0 0 27 27" fill="none" xmlns="http://www.w3.org/2000/svg">
<g clip-path="url(#clip0_53_2418)">
<path d="M13.5 27C20.9558 27 27 20.9558 27 13.5C27 6.04416 20.9558 0 13.5 0C6.04416 0 0 6.04416 0 13.5C0 20.9558 6.04416 27 13.5 27Z" fill="#2E3148"/>
<path d="M13.5 21.3334C17.8262 21.3334 21.3333 17.8262 21.3333 13.5C21.3333 9.17377 17.8262 5.66666 13.5 5.66666C9.17376 5.66666 5.66665 9.17377 5.66665 13.5C5.66665 17.8262 9.17376 21.3334 13.5 21.3334Z" fill="#1B1E36"/>
<path d="M13.5278 1.72227C12.0705 1.72227 10.8889 7.00779 10.8889 13.5279C10.8889 20.0479 12.0705 25.3335 13.5278 25.3335C14.985 25.3335 16.1666 20.0479 16.1666 13.5279C16.1666 7.00779 14.985 1.72227 13.5278 1.72227ZM13.71 24.6672C13.5433 24.8895 13.3767 24.7227 13.3767 24.7227C12.7056 23.9451 12.37 22.5005 12.37 22.5005C11.1961 18.7228 11.4755 10.6116 11.4755 10.6116C12.0272 4.17225 13.0307 2.65107 13.3722 2.31336C13.4071 2.27889 13.453 2.25783 13.5019 2.25388C13.5508 2.24993 13.5995 2.26334 13.6394 2.29176C14.1349 2.64287 14.5505 4.11124 14.5505 4.11124C15.7777 8.66678 15.6666 12.9446 15.6666 12.9446C15.7777 16.6668 15.0516 20.8334 15.0516 20.8334C14.4927 24 13.71 24.6672 13.71 24.6672Z" fill="#6F7390"/>
<path d="M23.7678 7.65278C23.0422 6.38832 17.87 7.99384 12.2118 11.2384C6.55355 14.4829 2.5623 18.1384 3.28731 19.4023C4.01231 20.6662 9.18508 19.0613 14.8433 15.8167C20.5015 12.5722 24.4928 8.9167 23.7678 7.65278ZM3.95669 19.2289C3.67891 19.1939 3.74166 18.9656 3.74166 18.9656C4.0824 17.9967 5.16672 16.9867 5.16672 16.9867C7.86056 14.0884 15.0357 10.2945 15.0357 10.2945C20.8951 7.56832 22.7151 7.68334 23.1768 7.81046C23.2242 7.82369 23.2654 7.85326 23.293 7.89394C23.3207 7.93462 23.3331 7.98379 23.328 8.03272C23.2725 8.63752 22.203 9.72832 22.203 9.72832C18.8645 13.0611 15.0984 15.0939 15.0984 15.0939C11.925 17.0433 7.94956 18.486 7.94956 18.486C4.92459 19.5761 3.9568 19.2289 3.9568 19.2289H3.95669Z" fill="#6F7390"/>
<path d="M23.7422 19.4444C24.4733 18.1833 20.4921 14.5111 14.8538 11.2422C9.21542 7.97321 4.04384 6.34781 3.31333 7.61109C2.58282 8.87436 6.56338 12.5444 12.205 15.8134C17.8466 19.0823 23.0117 20.7078 23.7422 19.4444ZM3.79782 8.09838C3.68982 7.84231 3.91781 7.78065 3.91781 7.78065C4.92718 7.59003 6.345 8.0244 6.345 8.0244C10.2022 8.90277 17.0802 13.2111 17.0802 13.2111C22.3758 16.9167 23.1879 18.5489 23.3096 19.0122C23.322 19.0597 23.3172 19.1101 23.2961 19.1544C23.2749 19.1987 23.2388 19.2342 23.1941 19.2545C22.6419 19.5073 21.1629 19.1306 21.1629 19.1306C16.6046 17.9083 12.959 15.669 12.959 15.669C9.6835 13.9023 6.44458 11.1839 6.44458 11.1839C3.98347 9.11175 3.79858 8.10119 3.79858 8.10119L3.79782 8.09838Z" fill="#6F7390"/>
<path d="M13.5 14.8889C14.2671 14.8889 14.8889 14.2671 14.8889 13.5C14.8889 12.7329 14.2671 12.1111 13.5 12.1111C12.7329 12.1111 12.1111 12.7329 12.1111 13.5C12.1111 14.2671 12.7329 14.8889 13.5 14.8889Z" fill="#B7B9C8"/>
<path d="M19.1944 8.99997C19.6393 8.99997 20 8.62688 20 8.16664C20 7.70641 19.6393 7.33331 19.1944 7.33331C18.7495 7.33331 18.3888 7.70641 18.3888 8.16664C18.3888 8.62688 18.7495 8.99997 19.1944 8.99997Z" fill="#B7B9C8"/>
<path d="M5.97218 11.8333C6.41709 11.8333 6.77775 11.4602 6.77775 11C6.77775 10.5398 6.41709 10.1667 5.97218 10.1667C5.52728 10.1667 5.16661 10.5398 5.16661 11C5.16661 11.4602 5.52728 11.8333 5.97218 11.8333Z" fill="#B7B9C8"/>
<path d="M11.8611 22.0555C12.306 22.0555 12.6667 21.6824 12.6667 21.2222C12.6667 20.762 12.306 20.3889 11.8611 20.3889C11.4162 20.3889 11.0555 20.762 11.0555 21.2222C11.0555 21.6824 11.4162 22.0555 11.8611 22.0555Z" fill="#B7B9C8"/>
</g>
<defs>
<clipPath id="clip0_53_2418">
<rect width="27" height="27" fill="white"/>
</clipPath>
</defs>
</svg>
