<svg width="27" height="27" viewBox="0 0 27 27" fill="none" xmlns="http://www.w3.org/2000/svg">
<g clip-path="url(#clip0_55_2524)">
<path d="M13.4258 26.8516C20.8407 26.8516 26.8516 20.8407 26.8516 13.4258C26.8516 6.01094 20.8407 0 13.4258 0C6.01094 0 0 6.01094 0 13.4258C0 20.8407 6.01094 26.8516 13.4258 26.8516Z" fill="#ED4E33"/>
<path d="M11.0054 7.19021C7.34284 8.5985 7.00733 12.2051 5.95712 13.8895C4.89446 15.5939 2.45996 16.5343 2.79288 17.4029C3.12577 18.2714 5.56318 17.3385 7.49152 17.8927C9.39701 18.4403 12.0557 20.8959 15.7183 19.4876C17.5841 18.7702 18.9351 17.2936 19.5565 15.5446C19.6233 15.3569 19.4983 15.1561 19.3001 15.1376C19.1769 15.126 19.0587 15.1906 19.0031 15.3013C18.4412 16.4224 17.4771 17.3458 16.2155 17.8307C14.1327 18.6316 11.8538 18.0028 10.4542 16.4259C10.1363 16.0678 9.8644 15.6602 9.64978 15.2097C9.59078 15.0857 9.53467 14.9597 9.48493 14.8293C9.43489 14.6989 9.39237 14.5677 9.35332 14.4359C10.4542 13.9219 11.7245 13.3776 13.1646 12.8239C14.5766 12.281 15.8617 11.8406 17.0059 11.4884C17.78 11.2502 18.4894 11.0521 19.13 10.8901C19.1764 10.8785 19.2221 10.8669 19.2674 10.8556C19.3643 10.8316 19.4639 10.8834 19.4997 10.9767L19.5004 10.9785C19.5215 11.0338 19.5397 11.0894 19.5592 11.145C19.6859 11.504 19.7809 11.8667 19.8436 12.2303C19.8711 12.3894 20.0447 12.476 20.187 12.3995C20.7128 12.1167 21.1938 11.8409 21.6235 11.5756C23.2252 10.5877 24.1131 9.74981 23.9308 9.27497C23.7489 8.79984 22.5294 8.77261 20.6792 9.11157C20.0913 9.21934 19.4393 9.36419 18.7368 9.54353C18.6153 9.57453 18.4924 9.60669 18.3679 9.63971C17.7767 9.79675 17.1532 9.97664 16.5038 10.178C15.2963 10.5526 14.0008 11.0014 12.6633 11.5156C11.4121 11.9968 10.2262 12.4957 9.13871 12.9928C9.12541 10.8829 10.3989 8.8882 12.4817 8.08744C13.7431 7.60246 15.0764 7.64216 16.2432 8.09903C16.3583 8.14422 16.4894 8.11293 16.5735 8.02169C16.7083 7.87537 16.6669 7.64244 16.492 7.54742C14.8618 6.66468 12.8713 6.47289 11.0054 7.19021Z" fill="white"/>
</g>
<defs>
<clipPath id="clip0_55_2524">
<rect width="27" height="27" fill="white"/>
</clipPath>
</defs>
</svg>
