<svg viewBox="4.3 3.43 23.57 25.71" fill="none" xmlns="http://www.w3.org/2000/svg">
<g clip-path="url(#clip0_55_2476)">
<mask id="mask0_55_2476" style="mask-type:luminance" maskUnits="userSpaceOnUse" x="0" y="0" width="33" height="33">
<path d="M33 0H0V33H33V0Z" fill="white"></path>
</mask>
<g mask="url(#mask0_55_2476)">
<path d="M27.801 7.97102C27.5393 6.9632 26.6981 5.95538 25.1839 4.83343C23.9688 3.93971 22.6789 3.42628 21.6508 3.42628C21.4451 3.42628 21.2582 3.4453 21.0713 3.48333C20.6039 3.57841 20.1927 3.92069 19.9309 4.43413C19.6131 5.0426 19.5384 5.8603 19.744 6.35468C19.8188 6.50681 19.9122 6.69698 20.0244 6.86812C19.0337 7.4766 18.4728 7.64775 18.398 7.66676C20.9778 8.54151 23.1276 10.367 24.4735 12.7439L24.4922 12.5158C24.5483 11.8882 24.7352 11.1657 24.997 10.424C25.2587 10.5001 25.5204 10.5381 25.7821 10.5381C26.4738 10.5381 27.072 10.2529 27.4459 9.73949C27.8197 9.22605 27.9693 8.54151 27.801 7.97102Z" fill="#5E12A0"></path>
<path d="M25.1091 9.87286C26.8102 10.3483 27.5019 9.01717 27.2776 8.12344C27.0345 7.22968 26.2494 6.31694 24.8661 5.2901C23.4828 4.26327 22.0807 3.8449 21.1834 4.03506C20.2861 4.22524 20.0244 5.61334 20.2487 6.14579C20.3422 6.35497 20.5478 6.65923 20.8282 7.00149C20.473 7.2487 20.1366 7.43886 19.8561 7.61001C21.576 8.38963 23.0715 9.60663 24.1931 11.1279C24.324 10.6145 24.5109 10.1581 24.6791 9.75876C24.81 9.77778 24.9595 9.81581 25.1091 9.87286Z" fill="url(#paint0_radial_55_2476)"></path>
<path d="M15.3695 28.5079C21.1408 28.5079 25.8194 23.7488 25.8194 17.8782C25.8194 12.0075 21.1408 7.24841 15.3695 7.24841C9.59825 7.24841 4.91968 12.0075 4.91968 17.8782C4.91968 23.7488 9.59825 28.5079 15.3695 28.5079Z" fill="url(#paint1_radial_55_2476)"></path>
<path opacity="0.6" d="M26.4176 7.24848C24.9969 5.72722 23.8005 5.32788 22.3611 5.00465C21.2394 4.73842 21.5385 4.09188 22.9032 4.22498C22.2489 3.9968 21.632 3.93976 21.1833 4.03483C20.286 4.22498 20.0243 5.61313 20.2487 6.14558C20.3421 6.35476 20.5478 6.65898 20.8281 7.00127C20.3235 7.34357 19.8935 7.59078 19.5383 7.78094C19.7066 7.85696 19.9122 7.95204 20.1552 8.08516C20.7908 8.42745 21.4825 8.99794 21.4825 8.99794C20.4356 8.08516 20.6599 7.66684 22.0993 6.63996C22.548 6.31673 23.3705 6.35476 24.137 6.75406C24.9034 7.1534 25.8007 8.16122 25.8007 8.16122L24.9408 9.83461C24.9969 9.85363 25.053 9.87264 25.109 9.89166C25.6512 10.0438 26.0811 10.0058 26.4176 9.87264C26.8102 9.62543 27.8383 8.78876 26.4176 7.24848Z" fill="#A98698"></path>
<path d="M22.3423 5.91731C22.7162 6.06944 23.2022 6.33566 23.8004 6.735C24.5107 7.21037 25.1276 7.74282 25.5202 8.16118C24.8659 9.03589 24.436 10.2339 24.1743 11.0705C24.3051 11.2607 24.4547 11.4509 24.5855 11.641C24.7164 11.1656 24.9407 10.4621 25.2398 9.75846C25.3146 9.77748 25.4081 9.77748 25.5015 9.77748C25.7258 9.77748 25.9876 9.73945 26.1932 9.56834C26.3427 9.45425 26.511 9.24507 26.4923 8.86474C26.4923 8.50343 26.2119 8.04708 25.6324 7.49561C25.2211 7.09627 24.6603 6.65894 24.0995 6.2596C22.4918 5.17571 21.3702 4.87145 20.8655 5.38489C20.529 5.72714 20.5664 6.1455 20.6785 6.44976C20.0803 6.8491 19.5756 7.1343 19.2391 7.32447C19.4634 7.40053 19.6691 7.49561 19.8934 7.59069C20.4916 7.26742 21.3515 6.71599 22.3423 5.91731ZM25.8754 8.63655C25.9315 8.73163 25.9502 8.82671 25.9502 8.88376C25.9502 9.0549 25.8941 9.11195 25.8567 9.14999C25.7819 9.20703 25.6324 9.24507 25.5015 9.24507C25.6137 9.01687 25.7445 8.82671 25.8754 8.63655ZM21.2581 5.80321C21.3141 5.74616 21.4637 5.70813 21.7067 5.74616C21.5198 5.89829 21.3328 6.0314 21.1459 6.16452C21.1272 6.0314 21.1459 5.89829 21.2581 5.80321Z" fill="#5E12A0"></path>
<path d="M15.3696 6.62074C9.2567 6.62074 4.30283 11.6599 4.30283 17.878C4.30283 24.0961 9.2567 29.1353 15.3696 29.1353C21.4824 29.1353 26.4363 24.0961 26.4363 17.878C26.4363 11.6599 21.4637 6.62074 15.3696 6.62074ZM15.3696 28.5078C9.59318 28.5078 4.91972 23.7538 4.91972 17.878C4.91972 12.0022 9.59318 7.24824 15.3696 7.24824C21.1459 7.24824 25.8194 12.0022 25.8194 17.878C25.8194 23.7538 21.1273 28.5078 15.3696 28.5078Z" fill="#5E12A0"></path>
<path opacity="0.6" d="M15.3695 28.5079C21.1408 28.5079 25.8194 23.7488 25.8194 17.8782C25.8194 12.0075 21.1408 7.24841 15.3695 7.24841C9.59825 7.24841 4.91968 12.0075 4.91968 17.8782C4.91968 23.7488 9.59825 28.5079 15.3695 28.5079Z" fill="url(#paint2_linear_55_2476)"></path>
<path opacity="0.6" d="M15.2948 27.2147C9.59318 26.2829 5.7236 20.8254 6.65828 15.0256C7.06955 12.4585 8.34071 10.2717 10.1353 8.69344C7.51818 10.2337 5.57403 12.9149 5.05061 16.1856C4.13461 21.9853 8.00423 27.4428 13.6871 28.3746C16.8651 28.9071 19.9309 27.8992 22.1928 25.9216C20.1926 27.1006 17.7624 27.614 15.2948 27.2147Z" fill="#A98698"></path>
<path opacity="0.6" d="M17.0334 7.4007C14.3975 6.96332 11.8365 7.57184 9.74279 8.92196C9.70538 8.95999 9.668 8.99798 9.668 8.99798C10.4718 8.5036 11.6495 8.06623 11.6495 8.06623C8.62116 9.85371 7.68648 11.8884 7.68648 11.8884C8.86417 9.56847 12.3225 7.93311 15.0331 7.81901C17.7437 7.70492 19.5196 8.52262 21.6881 10.2911C23.8566 12.0785 25.1651 15.7295 25.0343 18.6199C24.9221 21.5103 23.4266 23.8492 23.4266 23.8492C24.4548 22.4991 25.0717 21.5103 25.4642 20.5025C25.539 20.1982 25.6138 19.894 25.6512 19.5707C26.5859 13.79 22.735 8.33245 17.0334 7.4007Z" fill="url(#paint3_linear_55_2476)"></path>
<path d="M25.2959 17.783C25.2959 23.3546 20.8468 27.8803 15.3695 27.8803C9.89224 27.8803 5.42441 23.3546 5.42441 17.783H25.2959Z" fill="url(#paint4_linear_55_2476)"></path>
<g opacity="0.6">
<path opacity="0.6" d="M24.5108 17.783C24.5108 23.2215 20.286 27.6712 14.9769 27.8803C15.1078 27.8803 15.2387 27.8803 15.3695 27.8803C20.8468 27.8803 25.2959 23.3546 25.2959 17.783H24.5108Z" fill="url(#paint5_linear_55_2476)"></path>
</g>
<g opacity="0.7">
<path opacity="0.7" d="M6.82645 17.783H5.42441C5.42441 23.3546 9.87355 27.8803 15.3508 27.8803C15.5939 27.8803 15.8182 27.8803 16.0425 27.8613C10.9017 27.481 6.82645 23.1074 6.82645 17.783Z" fill="url(#paint6_linear_55_2476)"></path>
</g>
<path d="M25.2772 17.878C25.2772 16.7181 23.2957 16.0526 20.6598 15.8244C18.7531 15.6722 16.8276 15.8624 14.6218 16.5469C12.715 17.1174 10.9952 17.0223 9.74271 16.8702C6.9573 16.5469 5.42441 16.5089 5.42441 17.878C5.42441 19.8557 9.3875 22.3277 15.3321 21.472C18.3418 21.0347 19.8934 20.1409 21.6693 19.5324C23.5948 18.8859 25.2772 18.9049 25.2772 17.878Z" fill="url(#paint7_linear_55_2476)"></path>
<path d="M18.6222 13.086C19.5514 13.086 20.3046 12.3198 20.3046 11.3746C20.3046 10.4294 19.5514 9.66315 18.6222 9.66315C17.693 9.66315 16.9398 10.4294 16.9398 11.3746C16.9398 12.3198 17.693 13.086 18.6222 13.086Z" fill="white"></path>
<path d="M21.3703 14.3604C21.7626 14.3604 22.0806 14.0368 22.0806 13.6377C22.0806 13.2387 21.7626 12.9152 21.3703 12.9152C20.9779 12.9152 20.6599 13.2387 20.6599 13.6377C20.6599 14.0368 20.9779 14.3604 21.3703 14.3604Z" fill="white"></path>
<g opacity="0.6">
<path opacity="0.6" d="M23.9127 10.0057C23.8941 10.0057 23.8753 10.0057 23.8753 10.0057C23.7632 9.9867 23.6884 9.87261 23.7071 9.73949C23.8753 8.86479 24.5857 8.02807 24.6231 7.99004C24.6979 7.89496 24.8474 7.89496 24.9222 7.97102C25.0157 8.04709 25.0156 8.19922 24.9409 8.27528C24.9222 8.2943 24.2679 9.07397 24.1184 9.83457C24.0997 9.94867 24.0062 10.0057 23.9127 10.0057Z" fill="url(#paint8_linear_55_2476)"></path>
</g>
<path opacity="0.2" d="M14.6811 25.8077C14.9702 25.8077 15.2045 25.5693 15.2045 25.2752C15.2045 24.9812 14.9702 24.7428 14.6811 24.7428C14.392 24.7428 14.1577 24.9812 14.1577 25.2752C14.1577 25.5693 14.392 25.8077 14.6811 25.8077Z" fill="white"></path>
<g opacity="0.4">
<path opacity="0.6" d="M14.3788 25.6218C14.1732 25.4127 14.1732 25.0704 14.3788 24.8612C14.4162 24.8232 14.4536 24.8042 14.491 24.7661C14.4162 24.7851 14.3601 24.8232 14.304 24.8802C14.0984 25.0894 14.0984 25.4317 14.304 25.6408C14.4723 25.812 14.734 25.85 14.9396 25.7359C14.7527 25.812 14.5284 25.7739 14.3788 25.6218Z" fill="url(#paint9_linear_55_2476)"></path>
</g>
<path opacity="0.3" d="M14.8649 25.123C14.9268 25.123 14.977 25.0719 14.977 25.0089C14.977 24.9459 14.9268 24.8948 14.8649 24.8948C14.8029 24.8948 14.7527 24.9459 14.7527 25.0089C14.7527 25.0719 14.8029 25.123 14.8649 25.123Z" fill="white"></path>
<path opacity="0.2" d="M17.4104 25.5416C17.6995 25.5416 17.9338 25.3032 17.9338 25.0091C17.9338 24.7151 17.6995 24.4767 17.4104 24.4767C17.1213 24.4767 16.887 24.7151 16.887 25.0091C16.887 25.3032 17.1213 25.5416 17.4104 25.5416Z" fill="white"></path>
<g opacity="0.4">
<path opacity="0.6" d="M17.1081 25.3558C16.9025 25.1466 16.9025 24.8043 17.1081 24.5951C17.1455 24.5571 17.1829 24.5381 17.2203 24.5001C17.1455 24.5191 17.0894 24.5571 17.0333 24.6142C16.8277 24.8233 16.8277 25.1656 17.0333 25.3748C17.2016 25.5459 17.4633 25.5839 17.6689 25.4698C17.482 25.5459 17.2576 25.5079 17.1081 25.3558Z" fill="url(#paint10_linear_55_2476)"></path>
</g>
<path opacity="0.3" d="M17.5942 24.8569C17.6561 24.8569 17.7064 24.8059 17.7064 24.7428C17.7064 24.6798 17.6561 24.6287 17.5942 24.6287C17.5322 24.6287 17.482 24.6798 17.482 24.7428C17.482 24.8059 17.5322 24.8569 17.5942 24.8569Z" fill="white"></path>
<path opacity="0.2" d="M16.0611 26.7776C16.278 26.7776 16.4537 26.5988 16.4537 26.3782C16.4537 26.1577 16.278 25.9789 16.0611 25.9789C15.8443 25.9789 15.6686 26.1577 15.6686 26.3782C15.6686 26.5988 15.8443 26.7776 16.0611 26.7776Z" fill="white"></path>
<g opacity="0.4">
<path opacity="0.6" d="M15.8368 26.6298C15.6873 26.4776 15.6873 26.2114 15.8368 26.0593C15.8555 26.0403 15.8929 26.0213 15.9116 26.0023C15.8555 26.0213 15.8181 26.0593 15.7808 26.0973C15.6312 26.2495 15.6312 26.5157 15.7808 26.6678C15.9116 26.8009 16.0985 26.8199 16.2668 26.7248C16.1172 26.7819 15.949 26.7439 15.8368 26.6298Z" fill="url(#paint11_linear_55_2476)"></path>
</g>
<path opacity="0.3" d="M16.1919 26.245C16.2333 26.245 16.2667 26.211 16.2667 26.169C16.2667 26.127 16.2333 26.0929 16.1919 26.0929C16.1507 26.0929 16.1172 26.127 16.1172 26.169C16.1172 26.211 16.1507 26.245 16.1919 26.245Z" fill="white"></path>
<path opacity="0.2" d="M18.4728 26.4923C18.6896 26.4923 18.8654 26.3135 18.8654 26.093C18.8654 25.8725 18.6896 25.6937 18.4728 25.6937C18.256 25.6937 18.0802 25.8725 18.0802 26.093C18.0802 26.3135 18.256 26.4923 18.4728 26.4923Z" fill="white"></path>
<g opacity="0.4">
<path opacity="0.6" d="M18.2485 26.3445C18.0989 26.1924 18.0989 25.9262 18.2485 25.7741C18.2671 25.755 18.3045 25.736 18.3232 25.717C18.2672 25.736 18.2298 25.7741 18.1924 25.8121C18.0428 25.9642 18.0428 26.2304 18.1924 26.3826C18.3232 26.5157 18.5102 26.5347 18.6784 26.4396C18.5288 26.4967 18.3606 26.4586 18.2485 26.3445Z" fill="url(#paint12_linear_55_2476)"></path>
</g>
<path opacity="0.3" d="M18.6036 25.9602C18.6449 25.9602 18.6784 25.9261 18.6784 25.8841C18.6784 25.8421 18.6449 25.8081 18.6036 25.8081C18.5623 25.8081 18.5288 25.8421 18.5288 25.8841C18.5288 25.9261 18.5623 25.9602 18.6036 25.9602Z" fill="white"></path>
<path opacity="0.2" d="M12.4532 25.6177C12.9282 25.6177 13.3131 25.226 13.3131 24.7429C13.3131 24.2599 12.9282 23.8682 12.4532 23.8682C11.9783 23.8682 11.5933 24.2599 11.5933 24.7429C11.5933 25.226 11.9783 25.6177 12.4532 25.6177Z" fill="white"></path>
<g opacity="0.4">
<path opacity="0.6" d="M11.9678 25.2942C11.6313 24.9519 11.6313 24.4004 11.9678 24.0581C12.0239 24.0011 12.0799 23.9631 12.1547 23.925C12.0426 23.9631 11.9491 24.0391 11.8556 24.1152C11.5191 24.4575 11.5191 25.009 11.8556 25.3512C12.136 25.6365 12.566 25.6935 12.9025 25.4843C12.5847 25.6174 12.2108 25.5604 11.9678 25.2942Z" fill="url(#paint13_linear_55_2476)"></path>
</g>
<path opacity="0.3" d="M12.7524 24.4766C12.8557 24.4766 12.9394 24.3915 12.9394 24.2864C12.9394 24.1814 12.8557 24.0963 12.7524 24.0963C12.6492 24.0963 12.5655 24.1814 12.5655 24.2864C12.5655 24.3915 12.6492 24.4766 12.7524 24.4766Z" fill="white"></path>
<path opacity="0.2" d="M20.1395 23.4686C20.6144 23.4686 20.9994 23.077 20.9994 22.5939C20.9994 22.1108 20.6144 21.7192 20.1395 21.7192C19.6646 21.7192 19.2795 22.1108 19.2795 22.5939C19.2795 23.077 19.6646 23.4686 20.1395 23.4686Z" fill="white"></path>
<g opacity="0.4">
<path opacity="0.6" d="M19.6317 23.1455C19.2952 22.8032 19.2952 22.2517 19.6317 21.9095C19.6878 21.8524 19.7439 21.8144 19.8186 21.7764C19.7065 21.8144 19.613 21.8905 19.5195 21.9665C19.1831 22.3088 19.1831 22.8603 19.5195 23.2025C19.8 23.4877 20.2299 23.5448 20.5664 23.3357C20.2486 23.4687 19.8934 23.4117 19.6317 23.1455Z" fill="url(#paint14_linear_55_2476)"></path>
</g>
<path opacity="0.3" d="M20.4355 22.3279C20.5388 22.3279 20.6225 22.2427 20.6225 22.1377C20.6225 22.0327 20.5388 21.9476 20.4355 21.9476C20.3323 21.9476 20.2486 22.0327 20.2486 22.1377C20.2486 22.2427 20.3323 22.3279 20.4355 22.3279Z" fill="white"></path>
</g>
</g>
<defs>
<radialGradient id="paint0_radial_55_2476" cx="0" cy="0" r="1" gradientUnits="userSpaceOnUse" gradientTransform="translate(26.9366 6.92542) scale(8.35507 8.49894)">
<stop stop-color="#FFEAFF" stop-opacity="0.6"></stop>
<stop offset="0.681" stop-color="#A087C9"></stop>
<stop offset="1" stop-color="#10002F"></stop>
</radialGradient>
<radialGradient id="paint1_radial_55_2476" cx="0" cy="0" r="1" gradientUnits="userSpaceOnUse" gradientTransform="translate(22.2882 10.5498) scale(20.4419 20.7938)">
<stop stop-color="#FFEAFF" stop-opacity="0.6"></stop>
<stop offset="0.681" stop-color="#A087C9"></stop>
<stop offset="1" stop-color="#10002F"></stop>
</radialGradient>
<linearGradient id="paint2_linear_55_2476" x1="13.6933" y1="28.3571" x2="17.1487" y2="7.40021" gradientUnits="userSpaceOnUse">
<stop stop-color="#81FFFF"></stop>
<stop offset="0.62" stop-color="white" stop-opacity="0"></stop>
</linearGradient>
<linearGradient id="paint3_linear_55_2476" x1="22.7341" y1="10.6593" x2="13.9584" y2="18.575" gradientUnits="userSpaceOnUse">
<stop offset="0.289" stop-color="white"></stop>
<stop offset="0.78" stop-color="white" stop-opacity="0"></stop>
</linearGradient>
<linearGradient id="paint4_linear_55_2476" x1="5.43282" y1="22.8258" x2="25.2911" y2="22.8258" gradientUnits="userSpaceOnUse">
<stop stop-color="#0002E9"></stop>
<stop offset="0.995" stop-color="#FF00C7"></stop>
</linearGradient>
<linearGradient id="paint5_linear_55_2476" x1="26.2311" y1="18.6691" x2="15.2484" y2="28.8726" gradientUnits="userSpaceOnUse">
<stop offset="0.289" stop-color="white"></stop>
<stop offset="0.78" stop-color="white" stop-opacity="0"></stop>
</linearGradient>
<linearGradient id="paint6_linear_55_2476" x1="5.43282" y1="22.8258" x2="16.0569" y2="22.8258" gradientUnits="userSpaceOnUse">
<stop stop-color="#000292"></stop>
<stop offset="0.995" stop-color="#7D00C7"></stop>
</linearGradient>
<linearGradient id="paint7_linear_55_2476" x1="5.44619" y1="18.7169" x2="25.2778" y2="18.7169" gradientUnits="userSpaceOnUse">
<stop stop-color="#000292"></stop>
<stop offset="0.995" stop-color="#BE00C7"></stop>
</linearGradient>
<linearGradient id="paint8_linear_55_2476" x1="24.9525" y1="7.89743" x2="23.4916" y2="10.2312" gradientUnits="userSpaceOnUse">
<stop offset="0.289" stop-color="white"></stop>
<stop offset="0.78" stop-color="white" stop-opacity="0"></stop>
</linearGradient>
<linearGradient id="paint9_linear_55_2476" x1="14.1493" y1="25.2959" x2="14.9402" y2="25.2959" gradientUnits="userSpaceOnUse">
<stop offset="0.289" stop-color="white"></stop>
<stop offset="0.78" stop-color="white" stop-opacity="0"></stop>
</linearGradient>
<linearGradient id="paint10_linear_55_2476" x1="16.8767" y1="25.0262" x2="17.6676" y2="25.0262" gradientUnits="userSpaceOnUse">
<stop offset="0.289" stop-color="white"></stop>
<stop offset="0.78" stop-color="white" stop-opacity="0"></stop>
</linearGradient>
<linearGradient id="paint11_linear_55_2476" x1="15.6661" y1="26.3871" x2="16.2599" y2="26.3871" gradientUnits="userSpaceOnUse">
<stop offset="0.289" stop-color="white"></stop>
<stop offset="0.78" stop-color="white" stop-opacity="0"></stop>
</linearGradient>
<linearGradient id="paint12_linear_55_2476" x1="18.0697" y1="26.1011" x2="18.6634" y2="26.1011" gradientUnits="userSpaceOnUse">
<stop offset="0.289" stop-color="white"></stop>
<stop offset="0.78" stop-color="white" stop-opacity="0"></stop>
</linearGradient>
<linearGradient id="paint13_linear_55_2476" x1="11.5947" y1="24.765" x2="12.8863" y2="24.765" gradientUnits="userSpaceOnUse">
<stop offset="0.289" stop-color="white"></stop>
<stop offset="0.78" stop-color="white" stop-opacity="0"></stop>
</linearGradient>
<linearGradient id="paint14_linear_55_2476" x1="19.2658" y1="22.6157" x2="20.5574" y2="22.6157" gradientUnits="userSpaceOnUse">
<stop offset="0.289" stop-color="white"></stop>
<stop offset="0.78" stop-color="white" stop-opacity="0"></stop>
</linearGradient>
<clipPath id="clip0_55_2476">
<rect width="33" height="33" fill="white"></rect>
</clipPath>
</defs>
</svg>