<svg width="27" height="27" viewBox="0 0 27 27" fill="none" xmlns="http://www.w3.org/2000/svg">
<g clip-path="url(#clip0_637_364)">
<mask id="mask0_637_364" style="mask-type:luminance" maskUnits="userSpaceOnUse" x="0" y="0" width="27" height="27">
<path d="M27 0H0V27H27V0Z" fill="white"/>
</mask>
<g mask="url(#mask0_637_364)">
<path d="M25.6781 4.77296C25.4033 3.71453 24.5199 2.6561 22.9296 1.4778C21.6535 0.539204 20.2988 0 19.219 0C19.0031 0 18.8068 0.0199713 18.6105 0.0599136C18.1196 0.159765 17.6877 0.519233 17.4128 1.05845C17.0791 1.69748 17.0006 2.55624 17.2166 3.07545C17.2951 3.23522 17.3932 3.43493 17.511 3.61467C16.4705 4.25371 15.8815 4.43345 15.803 4.45342C18.5123 5.37209 20.77 7.28924 22.1836 9.78555L22.2032 9.54594C22.2621 8.88689 22.4584 8.12803 22.7333 7.34915C23.0082 7.42903 23.283 7.46898 23.5579 7.46898C24.2842 7.46898 24.9125 7.16941 25.3051 6.63023C25.6978 6.09101 25.8548 5.37209 25.6781 4.77296Z" fill="#5E12A0"/>
<path d="M22.851 6.77029C24.6375 7.26957 25.3639 5.87163 25.1284 4.93303C24.8731 3.99439 24.0486 3.03581 22.5957 1.95741C21.143 0.879013 19.6705 0.439639 18.7281 0.639346C17.7858 0.839071 17.5109 2.29688 17.7465 2.85607C17.8447 3.07575 18.0606 3.39529 18.3551 3.75473C17.9821 4.01436 17.6287 4.21407 17.3342 4.39381C19.1404 5.21258 20.711 6.49069 21.889 8.08834C22.0264 7.54917 22.2227 7.06986 22.3994 6.65046C22.5369 6.67044 22.6939 6.71038 22.851 6.77029Z" fill="url(#paint0_radial_637_364)"/>
<path d="M12.6223 26.3411C18.6834 26.3411 23.5969 21.343 23.5969 15.1776C23.5969 9.01213 18.6834 4.01405 12.6223 4.01405C6.56122 4.01405 1.64771 9.01213 1.64771 15.1776C1.64771 21.343 6.56122 26.3411 12.6223 26.3411Z" fill="url(#paint1_radial_637_364)"/>
<path opacity="0.6" d="M24.2252 4.01414C22.7332 2.41649 21.4767 1.99709 19.965 1.65763C18.7871 1.37803 19.1011 0.699026 20.5343 0.838811C19.8472 0.599174 19.1993 0.539261 18.7281 0.639112C17.7858 0.838811 17.5109 2.29666 17.7465 2.85586C17.8447 3.07554 18.0606 3.39503 18.3551 3.75451C17.8251 4.114 17.3735 4.37362 17.0005 4.57333C17.1772 4.65317 17.3932 4.75303 17.6484 4.89283C18.3159 5.25231 19.0423 5.85144 19.0423 5.85144C17.9429 4.89283 18.1784 4.45351 19.6901 3.37506C20.1613 3.0356 21.0251 3.07554 21.8301 3.49489C22.635 3.91428 23.5774 4.97271 23.5774 4.97271L22.6743 6.73013C22.7332 6.7501 22.7921 6.77007 22.851 6.79005C23.4203 6.94981 23.8719 6.90987 24.2252 6.77007C24.6375 6.51045 25.7173 5.63176 24.2252 4.01414Z" fill="#A98698"/>
<path d="M19.9455 2.61611C20.3382 2.77588 20.8486 3.05548 21.4768 3.47488C22.2229 3.97411 22.8707 4.5333 23.283 4.97267C22.5959 5.8913 22.1444 7.14944 21.8695 8.02813C22.0069 8.22784 22.164 8.42755 22.3014 8.62726C22.4388 8.12798 22.6744 7.38909 22.9886 6.65016C23.0671 6.67013 23.1652 6.67013 23.2634 6.67013C23.499 6.67013 23.7739 6.63019 23.9898 6.45049C24.1469 6.33067 24.3236 6.11098 24.3039 5.71156C24.3039 5.33211 24.0094 4.85284 23.4008 4.27368C22.9689 3.85428 22.3799 3.39499 21.791 2.9756C20.1026 1.83728 18.9246 1.51774 18.3946 2.05697C18.0411 2.4164 18.0804 2.85577 18.1982 3.17531C17.57 3.5947 17.0399 3.89423 16.6865 4.09394C16.9221 4.17382 17.1381 4.27368 17.3736 4.37353C18.0019 4.03402 18.905 3.4549 19.9455 2.61611ZM23.6561 5.47191C23.7149 5.57176 23.7346 5.67162 23.7346 5.73153C23.7346 5.91127 23.6757 5.97118 23.6364 6.01113C23.5579 6.07104 23.4008 6.11098 23.2634 6.11098C23.3812 5.87133 23.5186 5.67162 23.6561 5.47191ZM18.8068 2.49629C18.8657 2.43637 19.0228 2.39643 19.278 2.43637C19.0817 2.59614 18.8853 2.73594 18.6891 2.87574C18.6694 2.73594 18.689 2.59614 18.8068 2.49629Z" fill="#5E12A0"/>
<path d="M12.6225 3.35488C6.20264 3.35488 1 8.64706 1 15.1774C1 21.7078 6.20264 27 12.6225 27C19.0423 27 24.2449 21.7078 24.2449 15.1774C24.2449 8.64706 19.0227 3.35488 12.6225 3.35488ZM12.6225 26.341C6.55601 26.341 1.64787 21.3483 1.64787 15.1774C1.64787 9.00654 6.55601 4.01388 12.6225 4.01388C18.6889 4.01388 23.5971 9.00654 23.5971 15.1774C23.5971 21.3483 18.6693 26.341 12.6225 26.341Z" fill="#5E12A0"/>
<path opacity="0.6" d="M12.6223 26.3411C18.6834 26.3411 23.5969 21.343 23.5969 15.1776C23.5969 9.01213 18.6834 4.01405 12.6223 4.01405C6.56122 4.01405 1.64771 9.01213 1.64771 15.1776C1.64771 21.343 6.56122 26.3411 12.6223 26.3411Z" fill="url(#paint2_linear_637_364)"/>
<path opacity="0.6" d="M12.5439 24.983C6.55594 24.0044 2.49204 18.2728 3.47366 12.1818C3.90557 9.48581 5.24057 7.18917 7.12531 5.53164C4.37674 7.14922 2.33496 9.96507 1.78525 13.4C0.823257 19.491 4.88719 25.2226 10.8555 26.2012C14.193 26.7603 17.4128 25.7019 19.7883 23.625C17.6876 24.8631 15.1353 25.4023 12.5439 24.983Z" fill="#A98698"/>
<path opacity="0.6" d="M14.37 4.174C11.6018 3.71466 8.9121 4.35374 6.71328 5.77165C6.67399 5.81159 6.63474 5.85149 6.63474 5.85149C7.47895 5.33228 8.71577 4.87294 8.71577 4.87294C5.53533 6.75019 4.55371 8.88702 4.55371 8.88702C5.79054 6.45062 9.42256 4.73315 12.2693 4.61332C15.116 4.49349 16.9811 5.35225 19.2584 7.20953C21.5358 9.08673 22.9101 12.9211 22.7727 15.9566C22.6549 18.9921 21.0843 21.4485 21.0843 21.4485C22.1641 20.0306 22.812 18.9921 23.2242 17.9337C23.3027 17.6142 23.3813 17.2946 23.4205 16.9551C24.4022 10.8841 20.3579 5.15254 14.37 4.174Z" fill="url(#paint3_linear_637_364)"/>
<path d="M23.0474 15.0777C23.0474 20.9291 18.3748 25.682 12.6225 25.682C6.87016 25.682 2.17798 20.9291 2.17798 15.0777H23.0474Z" fill="url(#paint4_linear_637_364)"/>
<g opacity="0.6">
<path opacity="0.6" d="M22.2228 15.0777C22.2228 20.7893 17.7858 25.4624 12.2102 25.682C12.3477 25.682 12.4851 25.682 12.6225 25.682C18.3748 25.682 23.0474 20.9291 23.0474 15.0777H22.2228Z" fill="url(#paint5_linear_637_364)"/>
</g>
<g opacity="0.7">
<path opacity="0.7" d="M3.65043 15.0777H2.17798C2.17798 20.9291 6.85054 25.682 12.6029 25.682C12.8581 25.682 13.0937 25.682 13.3293 25.6621C7.93032 25.2627 3.65043 20.6694 3.65043 15.0777Z" fill="url(#paint6_linear_637_364)"/>
</g>
<path d="M23.0277 15.1775C23.0277 13.9593 20.9467 13.2603 18.1785 13.0207C16.176 12.8609 14.1538 13.0606 11.8372 13.7795C9.83469 14.3787 8.02849 14.2788 6.71312 14.119C3.78784 13.7795 2.17798 13.7396 2.17798 15.1775C2.17798 17.2544 6.34008 19.8506 12.5832 18.9519C15.7441 18.4926 17.3736 17.5539 19.2386 16.9149C21.2608 16.2359 23.0277 16.2559 23.0277 15.1775Z" fill="url(#paint7_linear_637_364)"/>
<path d="M16.0384 10.1448C17.0143 10.1448 17.8053 9.34007 17.8053 8.34741C17.8053 7.35474 17.0143 6.55005 16.0384 6.55005C15.0626 6.55005 14.2715 7.35474 14.2715 8.34741C14.2715 9.34007 15.0626 10.1448 16.0384 10.1448Z" fill="white"/>
<path d="M18.9245 11.4831C19.3365 11.4831 19.6705 11.1434 19.6705 10.7242C19.6705 10.3051 19.3365 9.96537 18.9245 9.96537C18.5125 9.96537 18.1785 10.3051 18.1785 10.7242C18.1785 11.1434 18.5125 11.4831 18.9245 11.4831Z" fill="white"/>
<g opacity="0.6">
<path opacity="0.6" d="M21.5945 6.90983C21.5748 6.90983 21.5552 6.90983 21.5552 6.90983C21.4374 6.88986 21.3589 6.77003 21.3785 6.63023C21.5552 5.7116 22.3012 4.83287 22.3405 4.79293C22.419 4.69307 22.5761 4.69307 22.6546 4.77296C22.7528 4.85284 22.7527 5.01261 22.6742 5.0925C22.6546 5.11247 21.9674 5.93129 21.8104 6.73009C21.7908 6.84992 21.6926 6.90983 21.5945 6.90983Z" fill="url(#paint8_linear_637_364)"/>
</g>
<path opacity="0.2" d="M11.8993 23.5053C12.2029 23.5053 12.449 23.2549 12.449 22.9461C12.449 22.6373 12.2029 22.3869 11.8993 22.3869C11.5957 22.3869 11.3496 22.6373 11.3496 22.9461C11.3496 23.2549 11.5957 23.5053 11.8993 23.5053Z" fill="white"/>
<g opacity="0.4">
<path opacity="0.6" d="M11.582 23.3101C11.3661 23.0905 11.3661 22.731 11.582 22.5113C11.6213 22.4714 11.6606 22.4514 11.6998 22.4114C11.6213 22.4314 11.5624 22.4714 11.5035 22.5313C11.2876 22.7509 11.2876 23.1104 11.5035 23.3301C11.6802 23.5098 11.9551 23.5498 12.171 23.4299C11.9747 23.5098 11.7391 23.4699 11.582 23.3101Z" fill="url(#paint9_linear_637_364)"/>
</g>
<path opacity="0.3" d="M12.0924 22.7862C12.1575 22.7862 12.2102 22.7326 12.2102 22.6664C12.2102 22.6002 12.1575 22.5466 12.0924 22.5466C12.0273 22.5466 11.9746 22.6002 11.9746 22.6664C11.9746 22.7326 12.0273 22.7862 12.0924 22.7862Z" fill="white"/>
<path opacity="0.2" d="M14.7658 23.2258C15.0694 23.2258 15.3155 22.9755 15.3155 22.6666C15.3155 22.3578 15.0694 22.1075 14.7658 22.1075C14.4622 22.1075 14.2161 22.3578 14.2161 22.6666C14.2161 22.9755 14.4622 23.2258 14.7658 23.2258Z" fill="white"/>
<g opacity="0.4">
<path opacity="0.6" d="M14.4485 23.0307C14.2326 22.811 14.2326 22.4516 14.4485 22.2319C14.4878 22.1919 14.5271 22.172 14.5663 22.132C14.4878 22.152 14.4289 22.1919 14.37 22.2518C14.154 22.4715 14.154 22.831 14.37 23.0506C14.5467 23.2304 14.8215 23.2703 15.0375 23.1505C14.8412 23.2304 14.6056 23.1904 14.4485 23.0307Z" fill="url(#paint10_linear_637_364)"/>
</g>
<path opacity="0.3" d="M14.9589 22.5068C15.0239 22.5068 15.0767 22.4532 15.0767 22.387C15.0767 22.3208 15.0239 22.2671 14.9589 22.2671C14.8938 22.2671 14.8411 22.3208 14.8411 22.387C14.8411 22.4532 14.8938 22.5068 14.9589 22.5068Z" fill="white"/>
<path opacity="0.2" d="M13.3488 24.5239C13.5765 24.5239 13.7611 24.3361 13.7611 24.1045C13.7611 23.8729 13.5765 23.6851 13.3488 23.6851C13.1211 23.6851 12.9365 23.8729 12.9365 24.1045C12.9365 24.3361 13.1211 24.5239 13.3488 24.5239Z" fill="white"/>
<g opacity="0.4">
<path opacity="0.6" d="M13.1132 24.3687C12.9562 24.2089 12.9562 23.9293 13.1132 23.7696C13.1328 23.7496 13.1721 23.7296 13.1918 23.7096C13.1328 23.7296 13.0936 23.7696 13.0543 23.8095C12.8973 23.9693 12.8973 24.2489 13.0543 24.4086C13.1918 24.5484 13.3881 24.5684 13.5647 24.4685C13.4077 24.5284 13.231 24.4885 13.1132 24.3687Z" fill="url(#paint11_linear_637_364)"/>
</g>
<path opacity="0.3" d="M13.486 23.9646C13.5294 23.9646 13.5645 23.9289 13.5645 23.8848C13.5645 23.8406 13.5294 23.8049 13.486 23.8049C13.4426 23.8049 13.4075 23.8406 13.4075 23.8848C13.4075 23.9289 13.4426 23.9646 13.486 23.9646Z" fill="white"/>
<path opacity="0.2" d="M15.8815 24.2243C16.1092 24.2243 16.2938 24.0366 16.2938 23.805C16.2938 23.5733 16.1092 23.3856 15.8815 23.3856C15.6538 23.3856 15.4692 23.5733 15.4692 23.805C15.4692 24.0366 15.6538 24.2243 15.8815 24.2243Z" fill="white"/>
<g opacity="0.4">
<path opacity="0.6" d="M15.6459 24.0691C15.4889 23.9094 15.4889 23.6298 15.6459 23.47C15.6656 23.45 15.7048 23.43 15.7244 23.4101C15.6656 23.43 15.6263 23.47 15.587 23.5099C15.43 23.6697 15.43 23.9493 15.587 24.1091C15.7244 24.2489 15.9208 24.2688 16.0975 24.169C15.9404 24.2289 15.7637 24.189 15.6459 24.0691Z" fill="url(#paint12_linear_637_364)"/>
</g>
<path opacity="0.3" d="M16.0187 23.6655C16.0621 23.6655 16.0973 23.6297 16.0973 23.5856C16.0973 23.5414 16.0621 23.5057 16.0187 23.5057C15.9754 23.5057 15.9402 23.5414 15.9402 23.5856C15.9402 23.6297 15.9754 23.6655 16.0187 23.6655Z" fill="white"/>
<path opacity="0.2" d="M9.55957 23.3057C10.0584 23.3057 10.4627 22.8944 10.4627 22.3871C10.4627 21.8798 10.0584 21.4685 9.55957 21.4685C9.06081 21.4685 8.65649 21.8798 8.65649 22.3871C8.65649 22.8944 9.06081 23.3057 9.55957 23.3057Z" fill="white"/>
<g opacity="0.4">
<path opacity="0.6" d="M9.04981 22.966C8.69644 22.6066 8.69644 22.0274 9.04981 21.6679C9.10873 21.608 9.1676 21.5681 9.24615 21.5281C9.12835 21.5681 9.03019 21.6479 8.93202 21.7278C8.57865 22.0873 8.57865 22.6665 8.93202 23.0259C9.22652 23.3255 9.67806 23.3854 10.0314 23.1657C9.69768 23.3055 9.30502 23.2456 9.04981 22.966Z" fill="url(#paint13_linear_637_364)"/>
</g>
<path opacity="0.3" d="M9.87382 22.1074C9.98226 22.1074 10.0702 22.018 10.0702 21.9077C10.0702 21.7974 9.98226 21.7079 9.87382 21.7079C9.76539 21.7079 9.67749 21.7974 9.67749 21.9077C9.67749 22.018 9.76539 22.1074 9.87382 22.1074Z" fill="white"/>
<path opacity="0.2" d="M17.6319 21.0488C18.1306 21.0488 18.535 20.6375 18.535 20.1301C18.535 19.6228 18.1306 19.2115 17.6319 19.2115C17.1331 19.2115 16.7288 19.6228 16.7288 20.1301C16.7288 20.6375 17.1331 21.0488 17.6319 21.0488Z" fill="white"/>
<g opacity="0.4">
<path opacity="0.6" d="M17.0986 20.7094C16.7453 20.3499 16.7453 19.7708 17.0986 19.4113C17.1576 19.3514 17.2164 19.3115 17.295 19.2715C17.1772 19.3115 17.079 19.3914 16.9808 19.4712C16.6275 19.8307 16.6275 20.4099 16.9808 20.7693C17.2753 21.0689 17.7269 21.1288 18.0803 20.9091C17.7465 21.0489 17.3735 20.989 17.0986 20.7094Z" fill="url(#paint14_linear_637_364)"/>
</g>
<path opacity="0.3" d="M17.9429 19.8508C18.0513 19.8508 18.1392 19.7613 18.1392 19.651C18.1392 19.5407 18.0513 19.4513 17.9429 19.4513C17.8345 19.4513 17.7466 19.5407 17.7466 19.651C17.7466 19.7613 17.8345 19.8508 17.9429 19.8508Z" fill="white"/>
</g>
</g>
<defs>
<radialGradient id="paint0_radial_637_364" cx="0" cy="0" r="1" gradientUnits="userSpaceOnUse" gradientTransform="translate(24.7703 3.67485) scale(8.77462 8.92573)">
<stop stop-color="#FFEAFF" stop-opacity="0.6"/>
<stop offset="0.681" stop-color="#A087C9"/>
<stop offset="1" stop-color="#10002F"/>
</radialGradient>
<radialGradient id="paint1_radial_637_364" cx="0" cy="0" r="1" gradientUnits="userSpaceOnUse" gradientTransform="translate(19.8884 7.48124) scale(21.4684 21.838)">
<stop stop-color="#FFEAFF" stop-opacity="0.6"/>
<stop offset="0.681" stop-color="#A087C9"/>
<stop offset="1" stop-color="#10002F"/>
</radialGradient>
<linearGradient id="paint2_linear_637_364" x1="10.8619" y1="26.1827" x2="14.4908" y2="4.17348" gradientUnits="userSpaceOnUse">
<stop stop-color="#81FFFF"/>
<stop offset="0.62" stop-color="white" stop-opacity="0"/>
</linearGradient>
<linearGradient id="paint3_linear_637_364" x1="20.3569" y1="7.59626" x2="11.1406" y2="15.9094" gradientUnits="userSpaceOnUse">
<stop offset="0.289" stop-color="white"/>
<stop offset="0.78" stop-color="white" stop-opacity="0"/>
</linearGradient>
<linearGradient id="paint4_linear_637_364" x1="2.18682" y1="20.3737" x2="23.0423" y2="20.3737" gradientUnits="userSpaceOnUse">
<stop stop-color="#0002E9"/>
<stop offset="0.995" stop-color="#FF00C7"/>
</linearGradient>
<linearGradient id="paint5_linear_637_364" x1="24.0295" y1="16.0082" x2="12.4953" y2="26.7241" gradientUnits="userSpaceOnUse">
<stop offset="0.289" stop-color="white"/>
<stop offset="0.78" stop-color="white" stop-opacity="0"/>
</linearGradient>
<linearGradient id="paint6_linear_637_364" x1="2.18682" y1="20.3736" x2="13.3444" y2="20.3736" gradientUnits="userSpaceOnUse">
<stop stop-color="#000292"/>
<stop offset="0.995" stop-color="#7D00C7"/>
</linearGradient>
<linearGradient id="paint7_linear_637_364" x1="2.20085" y1="16.0584" x2="23.0283" y2="16.0584" gradientUnits="userSpaceOnUse">
<stop stop-color="#000292"/>
<stop offset="0.995" stop-color="#BE00C7"/>
</linearGradient>
<linearGradient id="paint8_linear_637_364" x1="22.6865" y1="4.69567" x2="21.1522" y2="7.14667" gradientUnits="userSpaceOnUse">
<stop offset="0.289" stop-color="white"/>
<stop offset="0.78" stop-color="white" stop-opacity="0"/>
</linearGradient>
<linearGradient id="paint9_linear_637_364" x1="11.341" y1="22.9678" x2="12.1716" y2="22.9678" gradientUnits="userSpaceOnUse">
<stop offset="0.289" stop-color="white"/>
<stop offset="0.78" stop-color="white" stop-opacity="0"/>
</linearGradient>
<linearGradient id="paint10_linear_637_364" x1="14.2055" y1="22.6845" x2="15.0361" y2="22.6845" gradientUnits="userSpaceOnUse">
<stop offset="0.289" stop-color="white"/>
<stop offset="0.78" stop-color="white" stop-opacity="0"/>
</linearGradient>
<linearGradient id="paint11_linear_637_364" x1="12.9339" y1="24.1138" x2="13.5576" y2="24.1138" gradientUnits="userSpaceOnUse">
<stop offset="0.289" stop-color="white"/>
<stop offset="0.78" stop-color="white" stop-opacity="0"/>
</linearGradient>
<linearGradient id="paint12_linear_637_364" x1="15.4582" y1="23.8135" x2="16.0817" y2="23.8135" gradientUnits="userSpaceOnUse">
<stop offset="0.289" stop-color="white"/>
<stop offset="0.78" stop-color="white" stop-opacity="0"/>
</linearGradient>
<linearGradient id="paint13_linear_637_364" x1="8.65797" y1="22.4103" x2="10.0144" y2="22.4103" gradientUnits="userSpaceOnUse">
<stop offset="0.289" stop-color="white"/>
<stop offset="0.78" stop-color="white" stop-opacity="0"/>
</linearGradient>
<linearGradient id="paint14_linear_637_364" x1="16.7143" y1="20.153" x2="18.0708" y2="20.153" gradientUnits="userSpaceOnUse">
<stop offset="0.289" stop-color="white"/>
<stop offset="0.78" stop-color="white" stop-opacity="0"/>
</linearGradient>
<clipPath id="clip0_637_364">
<rect width="27" height="27" fill="white"/>
</clipPath>
</defs>
</svg>
