<svg fill="none" xmlns="http://www.w3.org/2000/svg" viewBox="10.78 11.92 268.44 83.2"> <path d="M252.869 91.8702C247.431 91.8702 242.617 90.7355 238.428 88.466C234.313 86.1232 231.08 82.8656 228.728 78.6921C226.45 74.4458 225.31 69.4676 225.31 63.757V62.4393C225.31 56.7287 226.45 51.7868 228.728 47.6136C231.006 43.3673 234.202 40.1095 238.318 37.8396C242.434 35.4969 247.211 34.3255 252.649 34.3255C258.014 34.3255 262.68 35.5335 266.649 37.9495C270.618 40.2925 273.704 43.587 275.909 47.8332C278.114 52.0064 279.216 56.8748 279.216 62.4393V65.6359C279.216 66.4786 278.531 67.1612 277.685 67.1612H241.013C240.144 67.1612 239.44 67.884 239.563 68.7411C239.999 71.7612 241.347 74.273 243.61 76.2766C246.255 78.6188 249.489 79.7904 253.31 79.7904C257.205 79.7904 260.071 78.9483 261.909 77.2647C263.314 75.977 264.461 74.5822 265.351 73.0799C265.795 72.3299 266.746 72.0024 267.521 72.4069C267.521 72.4069 273.487 75.5233 276.171 76.925C276.51 77.1015 276.76 77.4097 276.863 77.7767C276.966 78.1432 276.913 78.5359 276.716 78.8622C275.746 80.4132 274.486 82.0776 272.932 83.8538C271.022 86.0499 268.449 87.9535 265.216 89.5644C261.982 91.1019 257.867 91.8702 252.869 91.8702ZM239.922 55.0884C239.661 55.992 240.387 56.8384 241.332 56.8384H263.426C264.327 56.8384 265.044 56.0621 264.848 55.1852C264.312 52.7937 263.112 50.8187 261.248 49.2608C259.043 47.3573 256.14 46.4056 252.539 46.4056C248.791 46.4056 245.814 47.3573 243.61 49.2608C241.829 50.7979 240.601 52.7402 239.922 55.0884Z" fill="#E91179"></path> <path d="M36.341 91.8702C29.2123 91.8702 23.3699 90.3331 18.8133 87.258C14.6286 84.4337 11.9627 80.4982 10.8154 75.451C10.6402 74.6801 11.1348 73.9284 11.9031 73.7305L21.7658 71.1892C22.6169 70.9699 23.4708 71.5108 23.7085 72.3539C24.2241 74.1836 24.944 75.6741 25.8685 76.8255C27.1178 78.2898 28.6244 79.3512 30.3881 80.0098C32.2257 80.5956 34.2099 80.8888 36.341 80.8888C39.5746 80.8888 41.963 80.3393 43.5065 79.2415C45.0498 78.0699 45.8214 76.6425 45.8214 74.9583C45.8214 73.2747 45.0866 71.9933 43.6168 71.1149C42.1467 70.1631 39.795 69.3943 36.5615 68.8085L33.475 68.2596C29.6533 67.5272 26.1625 66.539 23.0025 65.2946C19.8421 63.9769 17.3068 62.183 15.396 59.913C13.4853 57.6436 12.53 54.715 12.53 51.1279C12.53 45.7101 14.5142 41.5737 18.4826 38.7182C22.4513 35.7898 27.6691 34.3255 34.1364 34.3255C40.236 34.3255 45.307 35.68 49.3489 38.3887C52.9465 40.7999 55.4383 43.8778 56.8233 47.6228C57.1112 48.4009 56.6504 49.236 55.8551 49.4798L45.9913 52.5035C45.1307 52.7673 44.2394 52.232 43.9472 51.3833C43.2762 49.4351 42.2106 47.9954 40.7504 47.0645C38.9867 45.8931 36.782 45.3074 34.1364 45.3074C31.4905 45.3074 29.4695 45.7833 28.0732 46.735C26.6769 47.6136 25.9788 48.8581 25.9788 50.469C25.9788 52.2261 26.7137 53.5439 28.1834 54.4223C29.6533 55.2275 31.6374 55.8503 34.1364 56.2895L37.2229 56.8384C41.3383 57.5703 45.0498 58.559 48.3568 59.8034C51.7373 60.975 54.3831 62.6956 56.2938 64.965C58.2782 67.1612 59.2701 70.1631 59.2701 73.9702C59.2701 79.6808 57.1756 84.11 52.9867 87.258C48.8712 90.3331 43.3228 91.8702 36.341 91.8702Z" fill="#E91179"></path> <path d="M140.621 27.0777C142.385 28.6884 144.516 29.4936 147.014 29.4936C149.587 29.4936 151.718 28.6884 153.408 27.0777C155.099 25.4668 155.944 23.3437 155.944 20.7081C155.944 18.0725 155.099 15.9492 153.408 14.3385C151.718 12.7279 149.587 11.9226 147.014 11.9226C144.516 11.9226 142.385 12.7279 140.621 14.3385C138.931 15.9492 138.086 18.0725 138.086 20.7081C138.086 23.3437 138.931 25.4668 140.621 27.0777Z" fill="#E91179"></path> <path d="M219.21 73.6117C219.359 73.6545 219.52 73.6246 219.644 73.5315C219.767 73.4384 219.84 73.2929 219.84 73.1382C219.84 66.7172 219.84 14.9854 219.84 14.9854C219.84 14.1429 219.155 13.46 218.309 13.46H207.481C206.636 13.46 205.95 14.1429 205.95 14.9854V42.1228H203.966C203.231 40.805 202.165 39.5604 200.769 38.389C199.373 37.2174 197.536 36.2657 195.258 35.5336C193.052 34.7282 190.296 34.3256 186.99 34.3256C182.58 34.3256 178.501 35.4237 174.753 37.6203C171.005 39.7434 167.992 42.8915 165.714 47.0645C163.436 51.2378 162.296 56.2895 162.296 62.2194V63.9769C162.296 65.0437 162.333 66.0821 162.407 67.0917C162.423 67.2934 162.525 67.4785 162.689 67.5983C162.852 67.7182 163.06 67.761 163.258 67.7155C166.913 66.8889 170.88 66.3304 175.568 66.2234C175.759 66.2191 175.939 66.1372 176.068 65.9971C176.196 65.8564 176.261 65.6696 176.248 65.4803C176.207 64.8869 176.186 64.276 176.186 63.6474V62.549C176.186 57.2776 177.62 53.2877 180.485 50.5789C183.351 47.7966 186.916 46.4056 191.179 46.4056C195.515 46.4056 199.079 47.7966 201.872 50.5789C204.737 53.2877 206.171 57.2776 206.171 62.549V63.6474C206.171 65.644 205.965 67.4624 205.554 69.1022C205.512 69.2632 205.536 69.435 205.622 69.5784C205.707 69.7212 205.847 69.8245 206.009 69.8651C209.828 70.8196 213.167 71.8179 216.012 72.668C217.158 73.0109 218.225 73.3298 219.21 73.6117Z" fill="#E91179"></path> <path d="M77.6163 47.2841H91.0777C91.923 47.2841 92.6088 46.6013 92.6088 45.7591V37.3883C92.6088 36.5461 91.923 35.863 91.0777 35.863H77.6163V20.4764C77.6163 19.6339 76.9305 18.9511 76.0853 18.9511H65.2575C64.4477 18.9511 63.785 19.5776 63.7302 20.3706V38.7396L63.7296 54.7193C63.7302 70.5371 66.8429 95.1257 107.549 95.1257C129.882 95.1257 141.198 91.2186 151.193 87.7678C159.098 85.0393 166.175 82.5954 177.222 82.5954C194.388 82.5954 207.442 86.4972 216.011 89.0588H216.012C216.927 89.3321 217.918 89.1588 218.684 88.5901C219.451 88.0225 219.903 87.1269 219.903 86.1751C219.903 83.4787 219.903 80.1783 219.903 78.7969C219.903 78.4085 219.644 78.0667 219.269 77.9602C218.267 77.674 217.181 77.3492 216.011 76.9999C207.442 74.4388 194.388 70.5371 177.222 70.5371C166.175 70.5371 159.098 72.9804 151.193 75.7095C141.198 79.1602 129.882 83.0673 107.549 83.0673C76.0853 83.0673 77.3784 61.5469 77.5315 47.2838C77.5594 47.2842 77.5879 47.2841 77.6163 47.2841Z" fill="#E91179"></path> <path d="M100.489 77.652C100.489 77.9976 100.745 78.2914 101.089 78.3395C102.994 78.5985 105.049 78.7349 107.266 78.7349C109.523 78.7349 111.667 78.6953 113.708 78.6199C114.083 78.6059 114.379 78.2994 114.379 77.9265C114.379 74.5341 114.379 59.3641 114.379 59.3641C114.379 55.4838 115.518 52.6288 117.797 50.7985C120.075 48.895 122.978 47.943 126.505 47.943H131.809C132.655 47.943 133.34 47.2601 133.34 46.4179V37.1686C133.34 36.3264 132.655 35.6433 131.809 35.6433H126.726C124.227 35.6433 122.022 36.1558 120.112 37.1807C118.274 38.206 116.952 39.8166 116.143 42.0129H114.159V37.3883C114.159 36.5461 113.473 35.863 112.628 35.863H102.02C101.175 35.863 100.489 36.5461 100.489 37.3883V77.652Z" fill="#E91179"></path> <path d="M151.193 71.3776C151.964 71.1111 152.728 70.8474 153.488 70.589C153.77 70.4927 153.96 70.2284 153.96 69.932C153.96 65.8071 153.96 37.3883 153.96 37.3883C153.96 36.5461 153.274 35.863 152.428 35.863H141.601C140.755 35.863 140.07 36.5461 140.07 37.3883V73.9969C140.07 74.2136 140.172 74.4185 140.346 74.5496C140.519 74.6812 140.744 74.724 140.954 74.6657C144.708 73.6165 148.017 72.4738 151.193 71.3776Z" fill="#E91179"></path> </svg>